<svg height="128" viewBox="0 0 128 128" width="128" xmlns="http://www.w3.org/2000/svg"><path d="m45.5 129c11.9 0 21.5-9.6 21.5-21.5v-21.5h-21.5c-11.9 0-21.5 9.6-21.5 21.5s9.6 21.5 21.5 21.5zm0 0" fill="#1abcfe"/><path d="m24 64.5c0-11.9 9.6-21.5 21.5-21.5h21.5v43h-21.5c-11.9 0-21.5-9.6-21.5-21.5zm0 0" fill="#0acf83"/><path d="m24 21.5c0-11.9 9.6-21.5 21.5-21.5h21.5v43h-21.5c-11.9 0-21.5-9.6-21.5-21.5zm0 0" fill="#ff7262"/><path d="m67 0h21.5c11.9 0 21.5 9.6 21.5 21.5s-9.6 21.5-21.5 21.5h-21.5zm0 0" fill="#f24e1e"/><path d="m110 64.5c0 11.9-9.6 21.5-21.5 21.5s-21.5-9.6-21.5-21.5 9.6-21.5 21.5-21.5 21.5 9.6 21.5 21.5zm0 0" fill="#a259ff"/></svg>